# xmcd
#
# Track frame offsets:
#   150
#   19286
#   38556
#   59304
#   74281
#   94027
#   113340
#   126111
#   154777
#
# Disc length: 2327 seconds
#
# Revision: 0
# Processed by: cddbd v1.5.2PL0 Copyright (c) Steve Scherf et al.
# Submitted via: GXTranscoder 2.0.1939
#
DISCID=6a091509
DTITLE=ghdfhf - gfhsfghdgh
DYEAR=1999
DGENRE=Children's Music
TTITLE0=hfghjfg
TTITLE1=dfhgdfhghfghjdfhg
TTITLE2=fghdfghjdfjdh
TTITLE3=fdgjdhfjdf
TTITLE4=fghjhjgdjdf
TTITLE5=fgnfg
TTITLE6=nfgn
TTITLE7=gnfgn
TTITLE8=nfgn
EXTD=
EXTT0=
EXTT1=
EXTT2=
EXTT3=
EXTT4=
EXTT5=
EXTT6=
EXTT7=
EXTT8=
PLAYORDER=
